<mxfile host="65bd71144e">
    <diagram id="884L0Xf83Pq_ccJ1pr7z" name="ページ1">
        <mxGraphModel dx="692" dy="1791" grid="1" gridSize="10" guides="1" tooltips="1" connect="1" arrows="1" fold="1" page="1" pageScale="1" pageWidth="827" pageHeight="1169" math="0" shadow="0">
            <root>
                <mxCell id="0"/>
                <mxCell id="1" parent="0"/>
                <mxCell id="15" value="" style="rounded=0;whiteSpace=wrap;html=1;fillColor=none;" vertex="1" parent="1">
                    <mxGeometry x="80" y="-1080" width="400" height="320" as="geometry"/>
                </mxCell>
                <mxCell id="17" value="リバーシ　（アプリケーション設計学習）" style="rounded=0;whiteSpace=wrap;html=1;fillColor=none;" vertex="1" parent="1">
                    <mxGeometry x="80" y="-1080" width="400" height="50" as="geometry"/>
                </mxCell>
                <mxCell id="11" value="過去の対戦結果" style="rounded=0;whiteSpace=wrap;html=1;fillColor=none;" vertex="1" parent="1">
                    <mxGeometry x="150" y="-960" width="260" height="110" as="geometry"/>
                </mxCell>
                <mxCell id="20" value="対戦する" style="html=1;whiteSpace=wrap;" vertex="1" parent="1">
                    <mxGeometry x="235" y="-1010" width="90" height="30" as="geometry"/>
                </mxCell>
                <mxCell id="22" value="" style="rounded=0;whiteSpace=wrap;html=1;fillColor=none;" vertex="1" parent="1">
                    <mxGeometry x="520" y="-1080" width="400" height="320" as="geometry"/>
                </mxCell>
                <mxCell id="23" value="リバーシ　（アプリケーション設計学習）" style="rounded=0;whiteSpace=wrap;html=1;fillColor=none;" vertex="1" parent="1">
                    <mxGeometry x="520" y="-1080" width="400" height="50" as="geometry"/>
                </mxCell>
                <mxCell id="24" value="盤面" style="rounded=0;whiteSpace=wrap;html=1;fillColor=none;" vertex="1" parent="1">
                    <mxGeometry x="660" y="-960" width="120" height="120" as="geometry"/>
                </mxCell>
                <mxCell id="25" value="白の番はスキップです" style="html=1;whiteSpace=wrap;" vertex="1" parent="1">
                    <mxGeometry x="657.5" y="-1010" width="125" height="30" as="geometry"/>
                </mxCell>
                <mxCell id="30" value="次は黒の番です" style="html=1;whiteSpace=wrap;strokeColor=none;fillColor=none;" vertex="1" parent="1">
                    <mxGeometry x="657.5" y="-820" width="125" height="30" as="geometry"/>
                </mxCell>
            </root>
        </mxGraphModel>
    </diagram>
</mxfile>